<?xml version="1.0" encoding="UTF-8"?>
<svg width="400" height="1000" xmlns="http://www.w3.org/2000/svg">
 <g id="Notes"/>
 <g id="Guides">
  <line id="Baseline-S" x1="0" y1="256" x2="400" y2="256"/>
  <line id="Capline-S" x1="0" y1="126" x2="400" y2="126"/>
  <line id="Baseline-M" x1="0" y1="556" x2="400" y2="556"/>
  <line id="Capline-M" x1="0" y1="426" x2="400" y2="426"/>
  <line id="Baseline-L" x1="0" y1="856" x2="400" y2="856"/>
  <line id="Capline-L" x1="0" y1="726" x2="400" y2="726"/>
  <line id="left-margin" x1="108.85" y1="126" x2="108.85" y2="256"/>
  <line id="right-margin" x1="291.15" y1="126" x2="291.15" y2="256"/>
 </g>
 <g id="Symbols">
  <g id="Regular-S">
   <path d="M 134.34 163.55 L 244.13 163.55 L 244.13 204.46 L 244.13 204.46 C 244.13 224.07 228.23 239.98 208.61 239.98 L 169.86 239.98 L 169.86 239.98 C 150.24 239.98 134.34 224.07 134.34 204.46 Z M 224.76 185.35 L 224.76 185.35 C 224.76 189.06 221.75 192.08 218.03 192.08 L 160.44 192.08 C 156.73 192.08 153.71 189.06 153.71 185.35 L 153.71 185.35 C 153.71 181.63 156.73 178.62 160.44 178.62 L 218.03 178.62 C 221.75 178.62 224.76 181.63 224.76 185.35 Z" fill-rule="evenodd"/>
   <path d="M 244.13 184.00 L 250.59 184.00 C 259.21 184.00 266.20 190.99 266.20 199.61 C 266.20 208.23 259.21 215.22 250.59 215.22 L 244.13 215.22 C 240.57 215.22 237.68 218.11 237.68 221.68 C 237.68 225.25 240.57 228.14 244.13 228.14 L 250.59 228.14 C 266.35 228.14 279.12 215.37 279.12 199.61 C 279.12 183.86 266.35 171.09 250.59 171.09 L 244.13 171.09 C 240.57 171.09 237.68 173.98 237.68 177.54 C 237.68 181.11 240.57 184.00 244.13 184.00 Z" fill-rule="nonzero"/>
   <path d="M 128.96 275.50 L 249.52 275.50 C 253.68 275.50 257.05 272.13 257.05 267.96 C 257.05 263.80 253.68 260.43 249.52 260.43 L 128.96 260.43 C 124.79 260.43 121.42 263.80 121.42 267.96 C 121.42 272.13 124.79 275.50 128.96 275.50 Z" fill-rule="nonzero"/>
   <path d="M 153.08 117.08 C 146.17 123.03 145.42 129.64 149.32 136.58 C 150.01 137.81 150.33 138.30 152.04 140.82 C 155.90 146.52 156.13 148.08 152.55 152.05 C 150.36 154.48 150.55 158.22 152.98 160.41 C 155.40 162.60 159.15 162.41 161.34 159.98 C 169.44 151.01 168.40 143.86 161.85 134.18 C 160.37 132.00 160.10 131.60 159.64 130.78 C 158.37 128.52 158.42 128.11 160.81 126.06 C 163.28 123.92 163.56 120.18 161.43 117.71 C 159.29 115.23 155.56 114.95 153.08 117.08 Z" fill-rule="nonzero"/>
   <path d="M 184.95 108.88 C 178.50 115.64 177.86 122.52 181.40 130.20 C 182.06 131.64 182.38 132.23 184.06 135.25 C 188.26 142.82 188.62 145.82 184.48 151.42 C 182.53 154.04 183.08 157.75 185.71 159.70 C 188.34 161.64 192.05 161.09 193.99 158.46 C 201.53 148.29 200.62 140.68 194.41 129.50 C 192.91 126.80 192.64 126.29 192.15 125.24 C 190.52 121.70 190.68 120.03 193.52 117.04 C 195.78 114.67 195.69 110.93 193.32 108.67 C 190.95 106.42 187.20 106.51 184.95 108.88 Z" fill-rule="nonzero"/>
   <path d="M 217.66 117.08 C 210.76 123.03 210.01 129.64 213.91 136.58 C 214.60 137.81 214.92 138.30 216.63 140.82 C 220.49 146.52 220.71 148.08 217.13 152.05 C 214.94 154.48 215.13 158.22 217.56 160.41 C 219.99 162.60 223.73 162.41 225.92 159.98 C 234.02 151.01 232.99 143.86 226.43 134.18 C 224.96 132.00 224.69 131.60 224.23 130.78 C 222.96 128.52 223.01 128.11 225.39 126.06 C 227.87 123.92 228.15 120.18 226.01 117.71 C 223.88 115.23 220.14 114.95 217.66 117.08 Z" fill-rule="nonzero"/>
  </g>
  <g id="Regular-M">
   <path d="M 134.34 463.55 L 244.13 463.55 L 244.13 504.46 L 244.13 504.46 C 244.13 524.07 228.23 539.98 208.61 539.98 L 169.86 539.98 L 169.86 539.98 C 150.24 539.98 134.34 524.07 134.34 504.46 Z M 224.76 485.35 L 224.76 485.35 C 224.76 489.06 221.75 492.08 218.03 492.08 L 160.44 492.08 C 156.73 492.08 153.71 489.06 153.71 485.35 L 153.71 485.35 C 153.71 481.63 156.73 478.62 160.44 478.62 L 218.03 478.62 C 221.75 478.62 224.76 481.63 224.76 485.35 Z" fill-rule="evenodd"/>
   <path d="M 244.13 484.00 L 250.59 484.00 C 259.21 484.00 266.20 490.99 266.20 499.61 C 266.20 508.23 259.21 515.22 250.59 515.22 L 244.13 515.22 C 240.57 515.22 237.68 518.11 237.68 521.68 C 237.68 525.25 240.57 528.14 244.13 528.14 L 250.59 528.14 C 266.35 528.14 279.12 515.37 279.12 499.61 C 279.12 483.86 266.35 471.09 250.59 471.09 L 244.13 471.09 C 240.57 471.09 237.68 473.98 237.68 477.54 C 237.68 481.11 240.57 484.00 244.13 484.00 Z" fill-rule="nonzero"/>
   <path d="M 128.96 575.50 L 249.52 575.50 C 253.68 575.50 257.05 572.13 257.05 567.96 C 257.05 563.80 253.68 560.43 249.52 560.43 L 128.96 560.43 C 124.79 560.43 121.42 563.80 121.42 567.96 C 121.42 572.13 124.79 575.50 128.96 575.50 Z" fill-rule="nonzero"/>
   <path d="M 153.08 417.08 C 146.17 423.03 145.42 429.64 149.32 436.58 C 150.01 437.81 150.33 438.30 152.04 440.82 C 155.90 446.52 156.13 448.08 152.55 452.05 C 150.36 454.48 150.55 458.22 152.98 460.41 C 155.40 462.60 159.15 462.41 161.34 459.98 C 169.44 451.01 168.40 443.86 161.85 434.18 C 160.37 432.00 160.10 431.60 159.64 430.78 C 158.37 428.52 158.42 428.11 160.81 426.06 C 163.28 423.92 163.56 420.18 161.43 417.71 C 159.29 415.23 155.56 414.95 153.08 417.08 Z" fill-rule="nonzero"/>
   <path d="M 184.95 408.88 C 178.50 415.64 177.86 422.52 181.40 430.20 C 182.06 431.64 182.38 432.23 184.06 435.25 C 188.26 442.82 188.62 445.82 184.48 451.42 C 182.53 454.04 183.08 457.75 185.71 459.70 C 188.34 461.64 192.05 461.09 193.99 458.46 C 201.53 448.29 200.62 440.68 194.41 429.50 C 192.91 426.80 192.64 426.29 192.15 425.24 C 190.52 421.70 190.68 420.03 193.52 417.04 C 195.78 414.67 195.69 410.93 193.32 408.67 C 190.95 406.42 187.20 406.51 184.95 408.88 Z" fill-rule="nonzero"/>
   <path d="M 217.66 417.08 C 210.76 423.03 210.01 429.64 213.91 436.58 C 214.60 437.81 214.92 438.30 216.63 440.82 C 220.49 446.52 220.71 448.08 217.13 452.05 C 214.94 454.48 215.13 458.22 217.56 460.41 C 219.99 462.60 223.73 462.41 225.92 459.98 C 234.02 451.01 232.99 443.86 226.43 434.18 C 224.96 432.00 224.69 431.60 224.23 430.78 C 222.96 428.52 223.01 428.11 225.39 426.06 C 227.87 423.92 228.15 420.18 226.01 417.71 C 223.88 415.23 220.14 414.95 217.66 417.08 Z" fill-rule="nonzero"/>
  </g>
  <g id="Regular-L">
   <path d="M 134.34 763.55 L 244.13 763.55 L 244.13 804.46 L 244.13 804.46 C 244.13 824.07 228.23 839.98 208.61 839.98 L 169.86 839.98 L 169.86 839.98 C 150.24 839.98 134.34 824.07 134.34 804.46 Z M 224.76 785.35 L 224.76 785.35 C 224.76 789.06 221.75 792.08 218.03 792.08 L 160.44 792.08 C 156.73 792.08 153.71 789.06 153.71 785.35 L 153.71 785.35 C 153.71 781.63 156.73 778.62 160.44 778.62 L 218.03 778.62 C 221.75 778.62 224.76 781.63 224.76 785.35 Z" fill-rule="evenodd"/>
   <path d="M 244.13 784.00 L 250.59 784.00 C 259.21 784.00 266.20 790.99 266.20 799.61 C 266.20 808.23 259.21 815.22 250.59 815.22 L 244.13 815.22 C 240.57 815.22 237.68 818.11 237.68 821.68 C 237.68 825.25 240.57 828.14 244.13 828.14 L 250.59 828.14 C 266.35 828.14 279.12 815.37 279.12 799.61 C 279.12 783.86 266.35 771.09 250.59 771.09 L 244.13 771.09 C 240.57 771.09 237.68 773.98 237.68 777.54 C 237.68 781.11 240.57 784.00 244.13 784.00 Z" fill-rule="nonzero"/>
   <path d="M 128.96 875.50 L 249.52 875.50 C 253.68 875.50 257.05 872.13 257.05 867.96 C 257.05 863.80 253.68 860.43 249.52 860.43 L 128.96 860.43 C 124.79 860.43 121.42 863.80 121.42 867.96 C 121.42 872.13 124.79 875.50 128.96 875.50 Z" fill-rule="nonzero"/>
   <path d="M 153.08 717.08 C 146.17 723.03 145.42 729.64 149.32 736.58 C 150.01 737.81 150.33 738.30 152.04 740.82 C 155.90 746.52 156.13 748.08 152.55 752.05 C 150.36 754.48 150.55 758.22 152.98 760.41 C 155.40 762.60 159.15 762.41 161.34 759.98 C 169.44 751.01 168.40 743.86 161.85 734.18 C 160.37 732.00 160.10 731.60 159.64 730.78 C 158.37 728.52 158.42 728.11 160.81 726.06 C 163.28 723.92 163.56 720.18 161.43 717.71 C 159.29 715.23 155.56 714.95 153.08 717.08 Z" fill-rule="nonzero"/>
   <path d="M 184.95 708.88 C 178.50 715.64 177.86 722.52 181.40 730.20 C 182.06 731.64 182.38 732.23 184.06 735.25 C 188.26 742.82 188.62 745.82 184.48 751.42 C 182.53 754.04 183.08 757.75 185.71 759.70 C 188.34 761.64 192.05 761.09 193.99 758.46 C 201.53 748.29 200.62 740.68 194.41 729.50 C 192.91 726.80 192.64 726.29 192.15 725.24 C 190.52 721.70 190.68 720.03 193.52 717.04 C 195.78 714.67 195.69 710.93 193.32 708.67 C 190.95 706.42 187.20 706.51 184.95 708.88 Z" fill-rule="nonzero"/>
   <path d="M 217.66 717.08 C 210.76 723.03 210.01 729.64 213.91 736.58 C 214.60 737.81 214.92 738.30 216.63 740.82 C 220.49 746.52 220.71 748.08 217.13 752.05 C 214.94 754.48 215.13 758.22 217.56 760.41 C 219.99 762.60 223.73 762.41 225.92 759.98 C 234.02 751.01 232.99 743.86 226.43 734.18 C 224.96 732.00 224.69 731.60 224.23 730.78 C 222.96 728.52 223.01 728.11 225.39 726.06 C 227.87 723.92 228.15 720.18 226.01 717.71 C 223.88 715.23 220.14 714.95 217.66 717.08 Z" fill-rule="nonzero"/>
  </g>
 </g>
</svg>
